<?xml version="1.0" standalone="no"?>
<!DOCTYPE svg PUBLIC "-//W3C//DTD SVG 20010904//EN"
 "http://www.w3.org/TR/2001/REC-SVG-20010904/DTD/svg10.dtd">
<svg version="1.0" xmlns="http://www.w3.org/2000/svg"
 width="700.000000pt" height="700.000000pt" viewBox="0 0 700.000000 700.000000"
 preserveAspectRatio="xMidYMid meet">
<metadata>
Created by potrace 1.11, written by Peter Selinger 2001-2013
</metadata>
<g transform="translate(0.000000,700.000000) scale(0.100000,-0.100000)"
fill="#000000" stroke="none">
<path d="M0 3500 l0 -3500 3500 0 3500 0 0 3500 0 3500 -3500 0 -3500 0 0
-3500z m2900 668 c284 -758 518 -1379 521 -1382 2 -2 239 617 525 1377 l521
1382 412 3 411 2 0 -2040 0 -2040 -270 0 -270 0 -2 1780 -3 1780 -522 -1387
-521 -1388 -278 0 -278 0 -522 1388 c-287 763 -524 1390 -528 1394 -3 3 -6
-798 -6 -1780 l0 -1787 -265 0 -265 0 0 2040 0 2040 412 -2 411 -3 517 -1377z"/>
</g>
</svg>
